<svg xmlns="http://www.w3.org/2000/svg" width="840" height="1079" viewBox="0 0 840 1079" role="img" aria-labelledby="figtitle4" font-family="Droid Sans Fallback, Microsoft JhengHei, PingFang TC, sans-serif"><title id="figtitle4">一次部署的責任流程</title><rect width="840" height="1079" fill="#f8fafc"/><defs><marker id="arrow4" viewBox="0 0 10 10" refX="9" refY="5" markerWidth="7" markerHeight="7" orient="auto-start-reverse"><path d="M 0 0 L 10 5 L 0 10 z" fill="#64748b"/></marker></defs><path d="M420,100 L420,148" fill="none" stroke="#64748b" stroke-width="2" marker-end="url(#arrow4)"/><path d="M420,218 L420,266" fill="none" stroke="#64748b" stroke-width="2" marker-end="url(#arrow4)"/><path d="M420,336 L420,384" fill="none" stroke="#64748b" stroke-width="2" marker-end="url(#arrow4)"/><path d="M420,454 L420,502" fill="none" stroke="#64748b" stroke-width="2" marker-end="url(#arrow4)"/><path d="M420,572 C420,596.0 140,596.0 140,620" fill="none" stroke="#64748b" stroke-width="2" marker-end="url(#arrow4)"/><path d="M420,572 C420,596.0 700,596.0 700,620" fill="none" stroke="#64748b" stroke-width="2" marker-end="url(#arrow4)"/><path d="M140,690 L140,738" fill="none" stroke="#64748b" stroke-width="2" marker-end="url(#arrow4)"/><path d="M140,808 C140,832.0 420,832.0 420,856" fill="none" stroke="#64748b" stroke-width="2" marker-end="url(#arrow4)"/><path d="M420,926 L420,974" fill="none" stroke="#64748b" stroke-width="2" marker-end="url(#arrow4)"/><rect x="310" y="30" width="220" height="70" rx="8" fill="#e8f1fb" stroke="#93b3d8" stroke-width="1.5"/><text x="420" y="71" text-anchor="middle" font-size="17" fill="#19344d">API 接受 Deployment</text><rect x="310" y="148" width="220" height="70" rx="8" fill="#e8f1fb" stroke="#93b3d8" stroke-width="1.5"/><text x="420" y="189" text-anchor="middle" font-size="17" fill="#19344d">Deployment 控制器</text><rect x="310" y="266" width="220" height="70" rx="8" fill="#e8f1fb" stroke="#93b3d8" stroke-width="1.5"/><text x="420" y="296" text-anchor="middle" font-size="17" fill="#19344d">ReplicaSet 控制器建立</text><text x="420" y="318" text-anchor="middle" font-size="17" fill="#19344d">Pod</text><rect x="310" y="384" width="220" height="70" rx="8" fill="#e8f1fb" stroke="#93b3d8" stroke-width="1.5"/><text x="420" y="425" text-anchor="middle" font-size="17" fill="#19344d">Scheduler 綁定 Node</text><rect x="310" y="502" width="220" height="70" rx="8" fill="#e8f1fb" stroke="#93b3d8" stroke-width="1.5"/><text x="420" y="543" text-anchor="middle" font-size="17" fill="#19344d">kubelet 協調啟動</text><rect x="30" y="620" width="220" height="70" rx="8" fill="#e8f1fb" stroke="#93b3d8" stroke-width="1.5"/><text x="140" y="661" text-anchor="middle" font-size="17" fill="#19344d">Runtime 啟動容器</text><rect x="590" y="620" width="220" height="70" rx="8" fill="#e8f1fb" stroke="#93b3d8" stroke-width="1.5"/><text x="700" y="661" text-anchor="middle" font-size="17" fill="#19344d">網路與儲存準備</text><rect x="30" y="738" width="220" height="70" rx="8" fill="#e8f1fb" stroke="#93b3d8" stroke-width="1.5"/><text x="140" y="779" text-anchor="middle" font-size="17" fill="#19344d">健康狀態與 Ready</text><rect x="310" y="856" width="220" height="70" rx="8" fill="#e8f1fb" stroke="#93b3d8" stroke-width="1.5"/><text x="420" y="897" text-anchor="middle" font-size="17" fill="#19344d">端點更新</text><rect x="310" y="974" width="220" height="70" rx="8" fill="#e8f1fb" stroke="#93b3d8" stroke-width="1.5"/><text x="420" y="1015" text-anchor="middle" font-size="17" fill="#19344d">資料平面轉送流量</text></svg>