<svg xmlns="http://www.w3.org/2000/svg" width="840" height="489" viewBox="0 0 840 489" role="img" aria-labelledby="figtitle7" font-family="Droid Sans Fallback, Microsoft JhengHei, PingFang TC, sans-serif"><title id="figtitle7">動態儲存供應</title><rect width="840" height="489" fill="#f8fafc"/><defs><marker id="arrow7" viewBox="0 0 10 10" refX="9" refY="5" markerWidth="7" markerHeight="7" orient="auto-start-reverse"><path d="M 0 0 L 10 5 L 0 10 z" fill="#64748b"/></marker></defs><path d="M140,100 L140,148" fill="none" stroke="#64748b" stroke-width="2" marker-end="url(#arrow7)"/><path d="M140,218 L140,266" fill="none" stroke="#64748b" stroke-width="2" marker-end="url(#arrow7)"/><path d="M140,336 C140,360.0 420,360.0 420,384" fill="none" stroke="#64748b" stroke-width="2" marker-end="url(#arrow7)"/><path d="M530,419 L590,419" fill="none" stroke="#64748b" stroke-width="2" marker-end="url(#arrow7)"/><path d="M420,384 L420,218" fill="none" stroke="#64748b" stroke-width="2" marker-end="url(#arrow7)"/><path d="M250,183 L310,183" fill="none" stroke="#64748b" stroke-width="2" marker-start="url(#arrow7)" marker-end="url(#arrow7)"/><rect x="262.0" y="156" width="36" height="20" rx="3" fill="#f8fafc"/><text x="280.0" y="170" text-anchor="middle" font-size="13" fill="#475569">綁定</text><path d="M700,384 L700,100" fill="none" stroke="#64748b" stroke-width="2" marker-end="url(#arrow7)"/><path d="M590,65 L250,65" fill="none" stroke="#64748b" stroke-width="2" marker-end="url(#arrow7)"/><rect x="30" y="30" width="220" height="70" rx="8" fill="#e8f1fb" stroke="#93b3d8" stroke-width="1.5"/><text x="140" y="71" text-anchor="middle" font-size="17" fill="#19344d">Pod 宣告使用 PVC</text><rect x="30" y="148" width="220" height="70" rx="8" fill="#e8f1fb" stroke="#93b3d8" stroke-width="1.5"/><text x="140" y="189" text-anchor="middle" font-size="17" fill="#19344d">PVC 儲存需求</text><rect x="30" y="266" width="220" height="70" rx="8" fill="#e8f1fb" stroke="#93b3d8" stroke-width="1.5"/><text x="140" y="307" text-anchor="middle" font-size="17" fill="#19344d">StorageClass 供應規則</text><rect x="310" y="384" width="220" height="70" rx="8" fill="#e8f1fb" stroke="#93b3d8" stroke-width="1.5"/><text x="420" y="425" text-anchor="middle" font-size="17" fill="#19344d">CSI 供應程序</text><rect x="590" y="384" width="220" height="70" rx="8" fill="#e8f1fb" stroke="#93b3d8" stroke-width="1.5"/><text x="700" y="425" text-anchor="middle" font-size="17" fill="#19344d">實際儲存後端</text><rect x="310" y="148" width="220" height="70" rx="8" fill="#e8f1fb" stroke="#93b3d8" stroke-width="1.5"/><text x="420" y="189" text-anchor="middle" font-size="17" fill="#19344d">PV 資源</text><rect x="590" y="30" width="220" height="70" rx="8" fill="#e8f1fb" stroke="#93b3d8" stroke-width="1.5"/><text x="700" y="71" text-anchor="middle" font-size="17" fill="#19344d">節點掛載</text></svg>