<svg xmlns="http://www.w3.org/2000/svg" width="840" height="607" viewBox="0 0 840 607" role="img" aria-labelledby="figtitle11" font-family="Droid Sans Fallback, Microsoft JhengHei, PingFang TC, sans-serif"><title id="figtitle11">三種擴容的合作</title><rect width="840" height="607" fill="#f8fafc"/><defs><marker id="arrow11" viewBox="0 0 10 10" refX="9" refY="5" markerWidth="7" markerHeight="7" orient="auto-start-reverse"><path d="M 0 0 L 10 5 L 0 10 z" fill="#64748b"/></marker></defs><path d="M140,100 L140,148" fill="none" stroke="#64748b" stroke-width="2" marker-end="url(#arrow11)"/><path d="M140,218 C140,242.0 420,242.0 420,266" fill="none" stroke="#64748b" stroke-width="2" marker-end="url(#arrow11)"/><path d="M420,336 C420,419.0 140,419.0 140,502" fill="none" stroke="#64748b" stroke-width="2" marker-end="url(#arrow11)"/><rect x="268.5" y="396.0" width="23" height="20" rx="3" fill="#f8fafc"/><text x="280.0" y="410.0" text-anchor="middle" font-size="13" fill="#475569">是</text><path d="M420,336 C420,360.0 700,360.0 700,384" fill="none" stroke="#64748b" stroke-width="2" marker-end="url(#arrow11)"/><rect x="548.5" y="337.0" width="23" height="20" rx="3" fill="#f8fafc"/><text x="560.0" y="351.0" text-anchor="middle" font-size="13" fill="#475569">否</text><path d="M700,454 C700,478.0 140,478.0 140,502" fill="none" stroke="#64748b" stroke-width="2" marker-end="url(#arrow11)"/><path d="M700,100 L700,148" fill="none" stroke="#64748b" stroke-width="2" marker-end="url(#arrow11)"/><path d="M700,218 C700,242.0 420,242.0 420,266" fill="none" stroke="#64748b" stroke-width="2" marker-end="url(#arrow11)"/><rect x="30" y="30" width="220" height="70" rx="8" fill="#e8f1fb" stroke="#93b3d8" stroke-width="1.5"/><text x="140" y="71" text-anchor="middle" font-size="17" fill="#19344d">流量或工作量增加</text><rect x="30" y="148" width="220" height="70" rx="8" fill="#e8f1fb" stroke="#93b3d8" stroke-width="1.5"/><text x="140" y="189" text-anchor="middle" font-size="17" fill="#19344d">HPA 增加 Pod</text><rect x="310" y="266" width="220" height="70" rx="22" fill="#fff4d7" stroke="#c59432" stroke-width="1.5"/><text x="420" y="307" text-anchor="middle" font-size="17" fill="#19344d">Node 容量足夠</text><rect x="30" y="502" width="220" height="70" rx="8" fill="#e8f1fb" stroke="#93b3d8" stroke-width="1.5"/><text x="140" y="543" text-anchor="middle" font-size="17" fill="#19344d">新副本執行</text><rect x="590" y="384" width="220" height="70" rx="8" fill="#e8f1fb" stroke="#93b3d8" stroke-width="1.5"/><text x="700" y="414" text-anchor="middle" font-size="17" fill="#19344d">Node Autoscaler 供應節</text><text x="700" y="436" text-anchor="middle" font-size="17" fill="#19344d">點</text><rect x="590" y="30" width="220" height="70" rx="8" fill="#e8f1fb" stroke="#93b3d8" stroke-width="1.5"/><text x="700" y="71" text-anchor="middle" font-size="17" fill="#19344d">歷史資源使用</text><rect x="590" y="148" width="220" height="70" rx="8" fill="#e8f1fb" stroke="#93b3d8" stroke-width="1.5"/><text x="700" y="189" text-anchor="middle" font-size="17" fill="#19344d">VPA 建議或調整 requests</text></svg>