<svg xmlns="http://www.w3.org/2000/svg" width="840" height="607" viewBox="0 0 840 607" role="img" aria-labelledby="figtitle12" font-family="Droid Sans Fallback, Microsoft JhengHei, PingFang TC, sans-serif"><title id="figtitle12">CI CD 與執行中觀測</title><rect width="840" height="607" fill="#f8fafc"/><defs><marker id="arrow12" viewBox="0 0 10 10" refX="9" refY="5" markerWidth="7" markerHeight="7" orient="auto-start-reverse"><path d="M 0 0 L 10 5 L 0 10 z" fill="#64748b"/></marker></defs><path d="M250,65 L310,65" fill="none" stroke="#64748b" stroke-width="2" marker-end="url(#arrow12)"/><path d="M530,65 L590,65" fill="none" stroke="#64748b" stroke-width="2" marker-end="url(#arrow12)"/><path d="M700,100 L700,148" fill="none" stroke="#64748b" stroke-width="2" marker-end="url(#arrow12)"/><rect x="715.5" y="110.0" width="49" height="20" rx="3" fill="#f8fafc"/><text x="740" y="124.0" text-anchor="middle" font-size="13" fill="#475569">未通過</text><path d="M590,85 L555,85 L555,235 L420,235 L420,266" fill="none" stroke="#64748b" stroke-width="2" marker-end="url(#arrow12)"/><rect x="469.0" y="213" width="36" height="20" rx="3" fill="#f8fafc"/><text x="487" y="227" text-anchor="middle" font-size="13" fill="#475569">通過</text><path d="M310,301 L250,301" fill="none" stroke="#64748b" stroke-width="2" marker-end="url(#arrow12)"/><path d="M140,336 L140,384" fill="none" stroke="#64748b" stroke-width="2" marker-end="url(#arrow12)"/><path d="M140,454 L140,502" fill="none" stroke="#64748b" stroke-width="2" marker-end="url(#arrow12)"/><path d="M250,537 L310,537" fill="none" stroke="#64748b" stroke-width="2" marker-end="url(#arrow12)"/><path d="M420,336 L420,502" fill="none" stroke="#64748b" stroke-width="2" marker-end="url(#arrow12)"/><rect x="429.0" y="405.0" width="62" height="20" rx="3" fill="#f8fafc"/><text x="460" y="419.0" text-anchor="middle" font-size="13" fill="#475569">映像拉取</text><path d="M530,537 L590,537" fill="none" stroke="#64748b" stroke-width="2" marker-end="url(#arrow12)"/><rect x="30" y="30" width="220" height="70" rx="8" fill="#e8f1fb" stroke="#93b3d8" stroke-width="1.5"/><text x="140" y="71" text-anchor="middle" font-size="17" fill="#19344d">GitLab 原始碼</text><rect x="310" y="30" width="220" height="70" rx="8" fill="#e8f1fb" stroke="#93b3d8" stroke-width="1.5"/><text x="420" y="71" text-anchor="middle" font-size="17" fill="#19344d">Runner 建置映像</text><rect x="590" y="30" width="220" height="70" rx="22" fill="#fff4d7" stroke="#c59432" stroke-width="1.5"/><text x="700" y="71" text-anchor="middle" font-size="17" fill="#19344d">Trivy CI 安全門檻</text><rect x="590" y="148" width="220" height="70" rx="8" fill="#e8f1fb" stroke="#93b3d8" stroke-width="1.5"/><text x="700" y="189" text-anchor="middle" font-size="17" fill="#19344d">停止發佈並修正</text><rect x="310" y="266" width="220" height="70" rx="8" fill="#e8f1fb" stroke="#93b3d8" stroke-width="1.5"/><text x="420" y="307" text-anchor="middle" font-size="17" fill="#19344d">Harbor 儲存核准映像</text><rect x="30" y="266" width="220" height="70" rx="8" fill="#e8f1fb" stroke="#93b3d8" stroke-width="1.5"/><text x="140" y="296" text-anchor="middle" font-size="17" fill="#19344d">更新部署 Git 的映像</text><text x="140" y="318" text-anchor="middle" font-size="17" fill="#19344d">digest</text><rect x="30" y="384" width="220" height="70" rx="8" fill="#e8f1fb" stroke="#93b3d8" stroke-width="1.5"/><text x="140" y="425" text-anchor="middle" font-size="17" fill="#19344d">Argo CD 對照 Git 與叢集</text><rect x="30" y="502" width="220" height="70" rx="8" fill="#e8f1fb" stroke="#93b3d8" stroke-width="1.5"/><text x="140" y="543" text-anchor="middle" font-size="17" fill="#19344d">Kubernetes API 套用資源</text><rect x="310" y="502" width="220" height="70" rx="8" fill="#e8f1fb" stroke="#93b3d8" stroke-width="1.5"/><text x="420" y="543" text-anchor="middle" font-size="17" fill="#19344d">Node 拉映像並執行 Pod</text><rect x="590" y="502" width="220" height="70" rx="8" fill="#e8f1fb" stroke="#93b3d8" stroke-width="1.5"/><text x="700" y="543" text-anchor="middle" font-size="17" fill="#19344d">日誌 監控與執行中掃描</text></svg>